HIERARCHY
ROOT SpineBase
{
  OFFSET 0.000000 0.000000 0.000000
  CHANNELS 6 Xposition Yposition Zposition Zrotation Xrotation Yrotation
  JOINT SpineMid
  {
    OFFSET -0.000000 22.531647 0.000000
    CHANNELS 3 Zrotation Xrotation Yrotation
    JOINT SpineShoulder
    {
      OFFSET 0.018494 16.672414 -0.266857
      CHANNELS 3 Zrotation Xrotation Yrotation
      JOINT Neck
      {
        OFFSET 0.012157 5.485435 -0.236085
        CHANNELS 3 Zrotation Xrotation Yrotation
        JOINT Head
        {
          OFFSET 3.586943 10.317737 -4.380478
          CHANNELS 3 Zrotation Xrotation Yrotation
          End Site
          {
            OFFSET 0 0 0
          }
        }
      }
      JOINT ShoulderLeft
      {
        OFFSET -13.709879 -4.619943 -8.056636
        CHANNELS 3 Zrotation Xrotation Yrotation
        JOINT ElbowLeft
        {
          OFFSET 2.073574 -23.249349 -4.242727
          CHANNELS 3 Zrotation Xrotation Yrotation
          JOINT WristLeft
          {
            OFFSET -0.111276 -11.563913 -18.296226
            CHANNELS 3 Zrotation Xrotation Yrotation
            JOINT HandLeft
            {
              OFFSET 0.269938 -1.917491 -2.280031
              CHANNELS 3 Zrotation Xrotation Yrotation
              JOINT HandTipLeft
              {
                OFFSET 2.394675 -3.805285 -1.614758
                CHANNELS 3 Zrotation Xrotation Yrotation
                End Site
                {
                  OFFSET 0 0 0
                }
              }
              JOINT ThumbLeft
              {
                OFFSET -2.225365 -3.746341 3.753408
                CHANNELS 3 Zrotation Xrotation Yrotation
                End Site
                {
                  OFFSET 0 0 0
                }
              }
            }
          }
        }
      }
      JOINT ShoulderRight
      {
        OFFSET 12.411200 -2.916545 5.199658
        CHANNELS 3 Zrotation Xrotation Yrotation
        JOINT ElbowRight
        {
          OFFSET 4.619572 -16.461557 0.560993
          CHANNELS 3 Zrotation Xrotation Yrotation
          JOINT WristRight
          {
            OFFSET 5.201135 -14.510693 -10.027662
            CHANNELS 3 Zrotation Xrotation Yrotation
            JOINT HandRight
            {
              OFFSET -0.190920 -0.410558 -2.315816
              CHANNELS 3 Zrotation Xrotation Yrotation
              JOINT HandTipRight
              {
                OFFSET 2.609692 -0.897533 -6.390006
                CHANNELS 3 Zrotation Xrotation Yrotation
                End Site
                {
                  OFFSET 0 0 0
                }
              }
              JOINT ThumbRight
              {
                OFFSET 2.233421 1.374982 -5.860118
                CHANNELS 3 Zrotation Xrotation Yrotation
                End Site
                {
                  OFFSET 0 0 0
                }
              }
            }
          }
        }
      }
    }
  }
  JOINT HipLeft
  {
    OFFSET -5.794310 0.474280 -4.618696
    CHANNELS 3 Zrotation Xrotation Yrotation
    JOINT KneeLeft
    {
      OFFSET 24.315813 -11.282657 -25.000953
      CHANNELS 3 Zrotation Xrotation Yrotation
      JOINT AnkleLeft
      {
        OFFSET -2.427565 -35.888559 5.638468
        CHANNELS 3 Zrotation Xrotation Yrotation
        JOINT FootLeft
        {
          OFFSET 3.769535 -6.517818 -9.543687
          CHANNELS 3 Zrotation Xrotation Yrotation
          End Site
          {
            OFFSET 0 0 0
          }
        }
      }
    }
  }
  JOINT HipRight
  {
    OFFSET 5.780851 -0.596941 -0.436103
    CHANNELS 3 Zrotation Xrotation Yrotation
    JOINT KneeRight
    {
      OFFSET 31.011088 -29.800289 -11.113660
      CHANNELS 3 Zrotation Xrotation Yrotation
      JOINT AnkleRight
      {
        OFFSET -2.939109 -17.643482 6.760921
        CHANNELS 3 Zrotation Xrotation Yrotation
        JOINT FootRight
        {
          OFFSET 0.778934 -3.552598 -10.308292
          CHANNELS 3 Zrotation Xrotation Yrotation
          End Site
          {
            OFFSET 0 0 0
          }
        }
      }
    }
  }
}
MOTION
Frames: 13
Frame Time: 0.033333
5.811885 54.611374 386.708859 0.000000 0.000000 -19.866922 -0.000000 -0.000000 19.866922 -0.000000 0.000000 0.000000 -0.000000 0.000000 0.000000 0.000000 0.000000 0.000000 -0.000000 0.000000 0.000000 -0.000000 0.000000 0.000000 -0.000000 0.000000 0.000000 -0.000000 0.000000 0.000000 0.000000 0.000000 0.000000 0.000000 0.000000 0.000000 -0.000000 0.000000 0.000000 -0.000000 0.000000 0.000000 -0.000000 0.000000 0.000000 -0.000000 0.000000 0.000000 0.000000 0.000000 0.000000 0.000000 0.000000 0.000000 -0.000000 -0.000000 19.866922 -0.000000 0.000000 0.000000 -0.000000 0.000000 0.000000 0.000000 0.000000 0.000000 -0.000000 -0.000000 19.866922 -0.000000 0.000000 0.000000 -0.000000 0.000000 0.000000 0.000000 0.000000 0.000000
5.726747 54.503459 385.913708 -0.174640 1.226489 -20.714318 0.597253 -1.085404 20.721845 -0.000000 0.000000 0.000000 -0.783087 -0.579150 -0.134479 0.000000 0.000000 0.000000 -0.879048 -0.862121 0.077071 0.880306 0.860836 -0.090298 0.115548 2.076605 0.149634 -0.121050 -2.076291 -0.153922 0.000000 0.000000 0.000000 0.000000 0.000000 0.000000 -2.907068 -0.622277 -0.291532 5.483258 3.890433 -0.452250 -2.650369 0.815054 -0.790496 -0.785555 -4.625414 6.776499 0.000000 0.000000 0.000000 0.000000 0.000000 0.000000 -0.200772 -3.594092 19.794516 1.601158 2.089647 0.865538 -0.000000 0.000000 0.000000 0.000000 0.000000 0.000000 1.627365 -1.218050 19.898026 -1.454493 1.257201 0.525141 0.121309 -2.690673 1.145567 0.000000 0.000000 0.000000
5.669944 54.413369 385.239784 -0.322983 2.228307 -21.563233 0.094991 -0.855187 21.553149 0.549264 -1.397948 0.017040 -1.422545 -1.040927 -0.252953 0.000000 0.000000 0.000000 -1.728882 -1.609433 0.148266 2.446512 2.275737 -1.340329 -0.594007 2.973670 1.410276 -0.193065 -3.657847 -0.303298 0.000000 0.000000 0.000000 0.000000 0.000000 0.000000 -5.211906 -1.117642 -0.549087 9.968110 7.392115 -0.941020 -4.660242 -0.540636 -1.783199 -1.888518 -7.880524 13.370276 0.000000 0.000000 0.000000 0.000000 0.000000 0.000000 -0.360385 -6.710397 19.794579 3.008725 3.970858 1.577792 -0.000000 0.000000 0.000000 0.000000 0.000000 0.000000 2.988384 -2.215014 20.094566 -2.719385 2.313136 0.970850 0.373983 -5.462130 1.890331 0.000000 0.000000 0.000000
5.641478 54.341106 384.687087 -0.445359 3.007808 -22.377112 0.124448 -1.085524 22.363994 0.191743 -1.348612 -0.014262 -1.381921 -2.006746 -0.347301 0.000000 0.000000 0.000000 -1.997874 -2.850295 0.217730 3.611824 3.169399 -2.006528 -0.967061 3.933723 2.073041 -0.228258 -4.903746 -0.452265 0.000000 0.000000 0.000000 0.000000 0.000000 0.000000 -6.401649 -2.106913 -0.807792 13.447047 10.452656 -1.360178 -6.078977 -2.938268 -3.022892 -3.062163 -11.109622 19.207114 0.000000 0.000000 0.000000 0.000000 0.000000 0.000000 -0.487576 -9.335863 19.855292 4.931221 4.986757 2.234495 -0.680110 0.660421 -0.147681 0.000000 0.000000 0.000000 4.060629 -3.001099 20.404416 -3.780228 3.180743 1.315613 0.750461 -8.348585 2.234575 0.000000 0.000000 0.000000
5.641346 54.286668 384.255617 -0.541998 3.566970 -23.128557 0.135001 -1.188454 23.113892 0.199971 -1.592538 -0.019774 -1.644239 -2.489361 -0.437189 0.000000 0.000000 0.000000 -2.658743 -3.588362 0.273453 4.737164 3.899879 -2.661357 -1.367156 4.693827 2.715138 -0.628539 -5.055198 0.064526 0.000000 0.000000 0.000000 0.000000 0.000000 0.000000 -7.484188 -2.607630 -1.006203 15.921155 13.050553 -1.621570 -6.948253 -5.898657 -4.510520 -4.075749 -14.835569 23.478280 0.000000 0.000000 0.000000 0.000000 0.000000 0.000000 -0.596642 -11.464052 19.968011 6.116030 6.191400 2.677917 -0.971635 -0.054024 -0.509965 0.000000 0.000000 0.000000 4.823349 -3.590029 20.788032 -4.626996 3.869621 1.541541 1.241756 -11.388310 2.166186 0.000000 0.000000 0.000000
5.669550 54.250057 383.945375 -0.613036 3.907043 -23.798907 0.121741 -1.166177 23.784168 0.180457 -1.733392 -0.025374 -1.823105 -2.890622 -0.512200 0.000000 0.000000 0.000000 -3.318815 -4.220064 0.325311 5.821301 4.467188 -3.298728 -1.785812 5.318350 3.340692 -0.306536 -5.142782 0.278886 0.000000 0.000000 0.000000 0.000000 0.000000 0.000000 -8.100017 -3.026853 -1.153685 17.399408 15.183494 -1.659047 -7.314967 -9.218018 -6.242845 -4.870023 -19.009750 25.383218 0.000000 0.000000 0.000000 0.000000 0.000000 0.000000 -0.704045 -13.093220 20.127180 7.061754 7.146915 2.998802 -1.076446 0.016870 -0.596519 0.000000 0.000000 0.000000 5.259422 -3.995834 21.218266 -5.254821 4.385416 1.634291 1.835125 -14.622167 1.659243 0.000000 0.000000 0.000000
5.737766 54.201758 383.803199 -0.613364 3.684959 -24.538885 -0.113269 -0.576050 24.525622 0.146952 -1.848637 -0.027927 -2.032812 -3.097033 -0.655937 0.000000 0.000000 0.000000 -4.115424 -4.616689 0.402383 6.881970 4.882880 -3.837937 -1.177945 5.426260 2.740170 -0.871808 -5.384587 1.190946 0.000000 0.000000 0.000000 0.000000 0.000000 0.000000 -8.200707 -3.625127 -1.315892 17.983016 17.305557 -1.535713 -8.371116 -9.085884 -4.601973 -5.520484 -23.125941 19.647293 0.000000 0.000000 0.000000 0.000000 0.000000 0.000000 -1.104475 -14.224553 20.533511 8.097100 7.981659 3.118912 -1.166545 0.234646 -0.716367 0.000000 0.000000 0.000000 5.120398 -3.910620 21.862743 -5.989061 4.622508 1.405190 3.030983 -21.811801 -0.823002 0.000000 0.000000 0.000000
5.890370 54.204992 383.619850 -0.516417 3.854202 -25.345348 -0.099832 -0.572929 25.331405 0.040454 -1.756965 -0.032417 -2.076158 -3.309115 -0.703551 0.000000 0.000000 0.000000 -4.929081 -5.041180 0.463373 8.091518 4.647705 -4.641825 -2.533840 6.898272 4.437641 0.808760 -4.396198 1.241485 0.000000 0.000000 0.000000 0.000000 0.000000 0.000000 -7.625376 -4.059442 -1.367223 16.521926 18.787274 -0.505206 -6.476772 -19.552065 -11.321090 -6.395826 -17.640343 17.071158 0.000000 0.000000 0.000000 0.000000 0.000000 0.000000 -1.331449 -15.600825 21.030156 8.867314 8.762452 3.208965 -1.153091 0.308830 -0.774317 0.000000 0.000000 0.000000 4.711048 -4.641541 22.523008 -6.484205 5.077308 1.187305 4.509701 -26.946909 -3.747823 0.000000 0.000000 0.000000
6.058388 54.302145 383.174763 -0.410929 4.795324 -26.858694 0.224571 -1.274773 26.841686 -0.087764 -1.640261 -0.040621 -1.733888 -3.573637 -0.591646 0.000000 0.000000 0.000000 -5.585798 -5.428739 0.513293 9.165556 4.426877 -5.370631 -3.840761 8.416305 6.056553 3.115616 -4.019422 0.921643 0.000000 0.000000 0.000000 0.000000 0.000000 0.000000 -6.663660 -3.938001 -1.173583 14.667255 18.402462 0.234520 -5.672850 -26.083291 -14.497555 -7.956322 -15.880401 14.779768 0.000000 0.000000 0.000000 0.000000 0.000000 0.000000 -0.801416 -17.561226 21.729782 9.245877 9.701632 3.860467 -1.140824 0.100433 -0.778332 0.000000 0.000000 0.000000 4.544770 -6.175217 23.953522 -5.658656 5.094077 1.357095 4.121881 -30.300002 -3.713422 0.000000 0.000000 0.000000
6.206763 54.391209 383.200763 -0.315980 4.887540 -27.051627 0.279360 -1.488612 27.030729 -0.235957 -1.336978 -0.049672 -1.485372 -3.945986 -0.463252 0.000000 0.000000 0.000000 -6.065778 -5.584931 0.573325 10.002504 4.213271 -5.902034 -4.772953 9.621048 7.200161 4.086980 -4.124677 0.837103 0.000000 0.000000 0.000000 0.000000 0.000000 0.000000 -6.299315 -3.888894 -1.084640 14.150158 18.521699 0.517081 -5.567204 -30.113736 -18.303922 -8.851202 -17.816208 15.043256 0.000000 0.000000 0.000000 0.000000 0.000000 0.000000 -0.878543 -17.938830 21.884322 9.175050 9.723520 3.854824 -0.927461 0.218925 -0.708407 0.000000 0.000000 0.000000 4.529176 -6.054079 24.320149 -5.466325 5.033277 1.240766 4.391024 -25.886409 -4.559970 0.000000 0.000000 0.000000
6.140018 54.477551 383.026160 -0.609013 5.308331 -27.128441 0.585218 -1.691574 27.126580 -0.247158 -1.093374 -0.053603 -1.184476 -4.387736 -0.351863 0.000000 0.000000 0.000000 -6.155258 -5.747482 0.594170 10.248354 3.633941 -6.021106 -5.133326 9.567617 7.606496 3.770822 -2.655849 1.372241 0.000000 0.000000 0.000000 0.000000 0.000000 0.000000 -6.156590 -3.886953 -0.994054 14.074681 18.269125 0.569592 -5.582539 -30.804004 -18.752746 -9.451304 -20.314977 13.761271 0.000000 0.000000 0.000000 0.000000 0.000000 0.000000 -0.277054 -18.252874 21.354946 8.709424 9.879382 4.521547 -0.712898 0.176300 -0.625438 0.000000 0.000000 0.000000 4.920122 -6.513879 24.322400 -5.323260 4.901387 1.401712 4.117443 -24.232480 -2.131377 0.000000 0.000000 0.000000
6.072660 54.393206 383.341557 -0.801781 4.653183 -25.535263 0.383295 -1.230772 25.535977 -0.201895 -0.778765 -0.051446 -1.013802 -4.600761 -0.289702 0.000000 0.000000 0.000000 -6.007949 -5.607409 0.619454 10.075442 2.946610 -5.860048 -5.390250 9.762593 7.887783 4.725254 -3.735116 0.148561 0.000000 0.000000 0.000000 0.000000 0.000000 0.000000 -6.375158 -3.601125 -0.879780 14.903295 18.145412 0.229637 -6.076456 -31.184333 -17.500470 -10.157872 -23.864441 13.470527 0.000000 0.000000 0.000000 0.000000 0.000000 0.000000 -0.352937 -16.037562 20.219276 7.429607 8.796539 4.336872 -0.413610 0.118247 -0.509979 0.000000 0.000000 0.000000 4.526677 -5.820269 22.872466 -5.151699 4.383725 1.270146 3.817281 -21.479243 -0.421210 0.000000 0.000000 0.000000
5.959803 54.213931 383.994492 -0.967959 3.293082 -23.081491 0.002314 -0.376940 23.081106 -0.056819 -0.601484 -0.042118 -1.070963 -4.194432 -0.352202 0.000000 0.000000 0.000000 -5.579720 -5.011270 0.646240 9.366584 2.365424 -5.358372 -5.098761 8.527957 7.462646 4.245551 -4.240666 -0.936853 0.000000 0.000000 0.000000 0.000000 0.000000 0.000000 -7.163842 -3.126870 -0.838548 16.254573 18.469671 -0.068016 -6.209721 -28.486024 -18.153356 -8.705975 -25.206426 15.809503 0.000000 0.000000 0.000000 0.000000 0.000000 0.000000 -0.188656 -11.396952 18.921866 5.111675 6.413683 3.673866 -0.112647 0.008843 -0.412806 0.000000 0.000000 0.000000 3.813889 -4.247786 20.740964 -4.957327 3.604179 0.943842 3.262254 -25.758404 -1.356312 0.000000 0.000000 0.000000
